<mxfile host="Electron" modified="2023-04-30T23:00:51.006Z" agent="Mozilla/5.0 (Windows NT 10.0; Win64; x64) AppleWebKit/537.36 (KHTML, like Gecko) draw.io/21.2.1 Chrome/112.0.5615.87 Electron/24.1.2 Safari/537.36" etag="wPQWffbCNKqptWpL6vys" version="21.2.1" type="device">
  <diagram id="RvMBe7ZX0cQTNr6M17k2" name="Config">
    <mxGraphModel dx="7372" dy="5052" grid="1" gridSize="10" guides="1" tooltips="1" connect="1" arrows="1" fold="1" page="1" pageScale="1" pageWidth="850" pageHeight="1100" math="0" shadow="0">
      <root>
        <mxCell id="0" />
        <mxCell id="1" parent="0" />
        <mxCell id="IUvRx3EV4BnGwmyhByUk-25" value="&lt;font style=&quot;font-size: 36px;&quot;&gt;Letsencrypt&lt;/font&gt;" style="image;aspect=fixed;html=1;points=[];align=center;fontSize=12;image=img/lib/azure2/networking/DNS_Zones.svg;" vertex="1" parent="1">
          <mxGeometry x="1720" y="-514" width="214" height="214" as="geometry" />
        </mxCell>
        <mxCell id="IUvRx3EV4BnGwmyhByUk-22" value="" style="rounded=1;whiteSpace=wrap;html=1;strokeColor=none;fillColor=#BAC8D3;fontSize=24;fontColor=#23445D;align=center;opacity=60;" vertex="1" parent="1">
          <mxGeometry x="-1275" y="425" width="470" height="740" as="geometry" />
        </mxCell>
        <mxCell id="IUvRx3EV4BnGwmyhByUk-17" value="" style="rounded=1;whiteSpace=wrap;html=1;strokeColor=none;fillColor=#BAC8D3;fontSize=24;fontColor=#23445D;align=center;opacity=60;" vertex="1" parent="1">
          <mxGeometry x="920" y="440" width="790" height="740" as="geometry" />
        </mxCell>
        <mxCell id="IUvRx3EV4BnGwmyhByUk-1" value="" style="rounded=1;whiteSpace=wrap;html=1;strokeColor=none;fillColor=#BAC8D3;fontSize=24;fontColor=#23445D;align=center;opacity=60;" vertex="1" parent="1">
          <mxGeometry x="-529" y="430" width="1010" height="740" as="geometry" />
        </mxCell>
        <mxCell id="IUvRx3EV4BnGwmyhByUk-5" style="edgeStyle=orthogonalEdgeStyle;rounded=0;orthogonalLoop=1;jettySize=auto;html=1;exitX=0.04;exitY=0.5;exitDx=0;exitDy=0;exitPerimeter=0;entryX=1.01;entryY=0.492;entryDx=0;entryDy=0;entryPerimeter=0;" edge="1" parent="1" source="HE7INgTBdaCVJKUSi9FB-1" target="9053hMfc9yj6UJDpu91s-10">
          <mxGeometry relative="1" as="geometry" />
        </mxCell>
        <mxCell id="IUvRx3EV4BnGwmyhByUk-10" value="&lt;font style=&quot;font-size: 36px;&quot;&gt;Get IP&lt;/font&gt;" style="edgeLabel;html=1;align=center;verticalAlign=middle;resizable=0;points=[];" vertex="1" connectable="0" parent="IUvRx3EV4BnGwmyhByUk-5">
          <mxGeometry x="0.3135" y="-4" relative="1" as="geometry">
            <mxPoint x="1" as="offset" />
          </mxGeometry>
        </mxCell>
        <mxCell id="IUvRx3EV4BnGwmyhByUk-7" style="edgeStyle=orthogonalEdgeStyle;rounded=0;orthogonalLoop=1;jettySize=auto;html=1;exitX=0.5;exitY=0.99;exitDx=0;exitDy=0;exitPerimeter=0;entryX=0.5;entryY=0;entryDx=0;entryDy=0;entryPerimeter=0;" edge="1" parent="1" source="HE7INgTBdaCVJKUSi9FB-1" target="9053hMfc9yj6UJDpu91s-9">
          <mxGeometry relative="1" as="geometry" />
        </mxCell>
        <mxCell id="IUvRx3EV4BnGwmyhByUk-11" value="&lt;font style=&quot;font-size: 36px;&quot;&gt;Get Vault (https://&amp;lt;public_ip&amp;gt;:8901)&lt;/font&gt;" style="edgeLabel;html=1;align=center;verticalAlign=middle;resizable=0;points=[];" vertex="1" connectable="0" parent="IUvRx3EV4BnGwmyhByUk-7">
          <mxGeometry x="-0.1841" y="-12" relative="1" as="geometry">
            <mxPoint as="offset" />
          </mxGeometry>
        </mxCell>
        <mxCell id="HE7INgTBdaCVJKUSi9FB-1" value="Internet" style="shape=mxgraph.cisco.storage.cloud;html=1;dashed=0;strokeColor=#23445D;fillColor=#ffffff;strokeWidth=2;fontFamily=Helvetica;fontSize=24;fontColor=#23445D;align=center;fontStyle=1" parent="1" vertex="1">
          <mxGeometry x="970" y="-530" width="391" height="230" as="geometry" />
        </mxCell>
        <mxCell id="IUvRx3EV4BnGwmyhByUk-13" style="edgeStyle=orthogonalEdgeStyle;rounded=0;orthogonalLoop=1;jettySize=auto;html=1;entryX=0.613;entryY=0;entryDx=0;entryDy=0;entryPerimeter=0;" edge="1" parent="1" source="9053hMfc9yj6UJDpu91s-9" target="9053hMfc9yj6UJDpu91s-12">
          <mxGeometry relative="1" as="geometry" />
        </mxCell>
        <mxCell id="IUvRx3EV4BnGwmyhByUk-16" value="&lt;font style=&quot;font-size: 36px;&quot;&gt;Get vault&lt;br&gt;https://&amp;lt;nginx_ip&amp;gt;:8901&lt;br&gt;&lt;br&gt;&lt;/font&gt;" style="edgeLabel;html=1;align=center;verticalAlign=middle;resizable=0;points=[];" vertex="1" connectable="0" parent="IUvRx3EV4BnGwmyhByUk-13">
          <mxGeometry x="0.1258" y="8" relative="1" as="geometry">
            <mxPoint x="-204" y="-51" as="offset" />
          </mxGeometry>
        </mxCell>
        <mxCell id="IUvRx3EV4BnGwmyhByUk-32" style="edgeStyle=orthogonalEdgeStyle;rounded=0;orthogonalLoop=1;jettySize=auto;html=1;exitX=1;exitY=0.5;exitDx=0;exitDy=0;exitPerimeter=0;entryX=0.508;entryY=1.045;entryDx=0;entryDy=0;entryPerimeter=0;" edge="1" parent="1" source="9053hMfc9yj6UJDpu91s-9" target="IUvRx3EV4BnGwmyhByUk-25">
          <mxGeometry relative="1" as="geometry" />
        </mxCell>
        <mxCell id="9053hMfc9yj6UJDpu91s-9" value="Router" style="shape=mxgraph.cisco.routers.router;html=1;dashed=0;fillColor=#10739E;strokeColor=#ffffff;strokeWidth=2;verticalLabelPosition=bottom;verticalAlign=top;fontFamily=Helvetica;fontSize=36;fontColor=#FFB366" parent="1" vertex="1">
          <mxGeometry x="1070" y="70" width="189" height="133" as="geometry" />
        </mxCell>
        <mxCell id="9053hMfc9yj6UJDpu91s-10" value="&lt;font style=&quot;font-size: 36px;&quot;&gt;DuckDNS&lt;/font&gt;" style="image;aspect=fixed;html=1;points=[];align=center;fontSize=12;image=img/lib/azure2/networking/DNS_Zones.svg;" parent="1" vertex="1">
          <mxGeometry x="480" y="-519" width="214" height="214" as="geometry" />
        </mxCell>
        <mxCell id="9053hMfc9yj6UJDpu91s-11" value="&lt;font style=&quot;font-size: 36px;&quot;&gt;Vaultwarden&lt;br&gt;192.168.178.250&lt;br&gt;&lt;/font&gt;" style="verticalLabelPosition=bottom;html=1;verticalAlign=top;align=center;strokeColor=none;fillColor=#00BEF2;shape=mxgraph.azure.virtual_machine;" parent="1" vertex="1">
          <mxGeometry x="-179.24" y="560" width="160" height="130" as="geometry" />
        </mxCell>
        <mxCell id="IUvRx3EV4BnGwmyhByUk-14" style="edgeStyle=orthogonalEdgeStyle;rounded=0;orthogonalLoop=1;jettySize=auto;html=1;exitX=0.5;exitY=1;exitDx=0;exitDy=0;exitPerimeter=0;entryX=0.5;entryY=-0.022;entryDx=0;entryDy=0;entryPerimeter=0;" edge="1" parent="1" source="9053hMfc9yj6UJDpu91s-12" target="9053hMfc9yj6UJDpu91s-21">
          <mxGeometry relative="1" as="geometry" />
        </mxCell>
        <mxCell id="9053hMfc9yj6UJDpu91s-12" value="&lt;font style=&quot;font-size: 36px;&quot;&gt;NGINX&lt;br&gt;192.168.178.249&lt;br&gt;&lt;/font&gt;" style="verticalLabelPosition=bottom;html=1;verticalAlign=top;align=center;strokeColor=none;fillColor=#00BEF2;shape=mxgraph.azure.virtual_machine;" parent="1" vertex="1">
          <mxGeometry x="1068" y="540" width="160" height="130" as="geometry" />
        </mxCell>
        <mxCell id="9053hMfc9yj6UJDpu91s-13" value="&lt;font style=&quot;font-size: 36px;&quot;&gt;Nextcloud&lt;br&gt;192.168.178.253&lt;br&gt;&lt;/font&gt;" style="verticalLabelPosition=bottom;html=1;verticalAlign=top;align=center;strokeColor=none;fillColor=#00BEF2;shape=mxgraph.azure.virtual_machine;" parent="1" vertex="1">
          <mxGeometry x="-1113" y="520" width="160" height="130" as="geometry" />
        </mxCell>
        <mxCell id="9053hMfc9yj6UJDpu91s-16" value="&lt;font style=&quot;font-size: 36px;&quot;&gt;vaultwarden&lt;/font&gt;" style="image;sketch=0;aspect=fixed;html=1;points=[];align=center;fontSize=12;image=img/lib/mscae/Docker.svg;fillColor=#00BEF2;strokeColor=none;" parent="1" vertex="1">
          <mxGeometry x="-69" y="900" width="109.76" height="90" as="geometry" />
        </mxCell>
        <mxCell id="IUvRx3EV4BnGwmyhByUk-23" style="edgeStyle=orthogonalEdgeStyle;rounded=0;orthogonalLoop=1;jettySize=auto;html=1;entryX=0.894;entryY=0.84;entryDx=0;entryDy=0;entryPerimeter=0;" edge="1" parent="1" source="9053hMfc9yj6UJDpu91s-19" target="9053hMfc9yj6UJDpu91s-22">
          <mxGeometry relative="1" as="geometry" />
        </mxCell>
        <mxCell id="IUvRx3EV4BnGwmyhByUk-24" value="&lt;font style=&quot;font-size: 36px;&quot;&gt;Backup&lt;/font&gt;" style="edgeLabel;html=1;align=center;verticalAlign=middle;resizable=0;points=[];" vertex="1" connectable="0" parent="IUvRx3EV4BnGwmyhByUk-23">
          <mxGeometry x="0.2602" y="1" relative="1" as="geometry">
            <mxPoint x="64" y="-24" as="offset" />
          </mxGeometry>
        </mxCell>
        <mxCell id="9053hMfc9yj6UJDpu91s-19" value="&lt;span style=&quot;font-size: 36px;&quot;&gt;vaultwarden-backups&lt;/span&gt;" style="image;sketch=0;aspect=fixed;html=1;points=[];align=center;fontSize=12;image=img/lib/mscae/Docker.svg;fillColor=#00BEF2;strokeColor=none;" parent="1" vertex="1">
          <mxGeometry x="-359" y="910" width="109.76" height="90" as="geometry" />
        </mxCell>
        <mxCell id="IUvRx3EV4BnGwmyhByUk-21" style="edgeStyle=orthogonalEdgeStyle;rounded=0;orthogonalLoop=1;jettySize=auto;html=1;entryX=1.039;entryY=0.622;entryDx=0;entryDy=0;entryPerimeter=0;" edge="1" parent="1" source="9053hMfc9yj6UJDpu91s-20" target="9053hMfc9yj6UJDpu91s-16">
          <mxGeometry relative="1" as="geometry" />
        </mxCell>
        <mxCell id="9053hMfc9yj6UJDpu91s-20" value="&lt;font style=&quot;font-size: 36px;&quot;&gt;nginx&lt;/font&gt;" style="image;sketch=0;aspect=fixed;html=1;points=[];align=center;fontSize=12;image=img/lib/mscae/Docker.svg;fillColor=#00BEF2;strokeColor=none;" parent="1" vertex="1">
          <mxGeometry x="171" y="910" width="109.76" height="90" as="geometry" />
        </mxCell>
        <mxCell id="IUvRx3EV4BnGwmyhByUk-18" style="edgeStyle=orthogonalEdgeStyle;rounded=0;orthogonalLoop=1;jettySize=auto;html=1;entryX=1.039;entryY=0.511;entryDx=0;entryDy=0;entryPerimeter=0;" edge="1" parent="1" source="9053hMfc9yj6UJDpu91s-21" target="9053hMfc9yj6UJDpu91s-20">
          <mxGeometry relative="1" as="geometry" />
        </mxCell>
        <mxCell id="IUvRx3EV4BnGwmyhByUk-19" value="&lt;font style=&quot;font-size: 36px;&quot;&gt;Get vault&lt;br&gt;https://&amp;lt;vaultwarden_ip&amp;gt;:8901&lt;br&gt;&lt;/font&gt;" style="edgeLabel;html=1;align=center;verticalAlign=middle;resizable=0;points=[];" vertex="1" connectable="0" parent="IUvRx3EV4BnGwmyhByUk-18">
          <mxGeometry x="-0.1707" y="9" relative="1" as="geometry">
            <mxPoint x="-47" y="106" as="offset" />
          </mxGeometry>
        </mxCell>
        <mxCell id="9053hMfc9yj6UJDpu91s-21" value="&lt;font style=&quot;font-size: 36px;&quot;&gt;nginx&lt;/font&gt;" style="image;sketch=0;aspect=fixed;html=1;points=[];align=center;fontSize=12;image=img/lib/mscae/Docker.svg;fillColor=#00BEF2;strokeColor=none;" parent="1" vertex="1">
          <mxGeometry x="1093.12" y="910" width="109.76" height="90" as="geometry" />
        </mxCell>
        <mxCell id="9053hMfc9yj6UJDpu91s-22" value="&lt;font style=&quot;font-size: 36px;&quot;&gt;nextcloud&lt;/font&gt;" style="image;sketch=0;aspect=fixed;html=1;points=[];align=center;fontSize=12;image=img/lib/mscae/Docker.svg;fillColor=#00BEF2;strokeColor=none;" parent="1" vertex="1">
          <mxGeometry x="-1116.88" y="877" width="109.76" height="90" as="geometry" />
        </mxCell>
        <mxCell id="IUvRx3EV4BnGwmyhByUk-2" style="edgeStyle=orthogonalEdgeStyle;rounded=0;orthogonalLoop=1;jettySize=auto;html=1;entryX=0.5;entryY=0.05;entryDx=0;entryDy=0;entryPerimeter=0;" edge="1" parent="1" source="9053hMfc9yj6UJDpu91s-23" target="HE7INgTBdaCVJKUSi9FB-1">
          <mxGeometry relative="1" as="geometry" />
        </mxCell>
        <mxCell id="IUvRx3EV4BnGwmyhByUk-9" value="&lt;font style=&quot;font-size: 36px;&quot;&gt;Get IP/Get vault (domain.duckdns.org:8901)&lt;/font&gt;" style="edgeLabel;html=1;align=center;verticalAlign=middle;resizable=0;points=[];" vertex="1" connectable="0" parent="IUvRx3EV4BnGwmyhByUk-2">
          <mxGeometry x="-0.1647" y="12" relative="1" as="geometry">
            <mxPoint x="-1" y="-5" as="offset" />
          </mxGeometry>
        </mxCell>
        <mxCell id="9053hMfc9yj6UJDpu91s-23" value="" style="verticalLabelPosition=bottom;html=1;verticalAlign=top;align=center;strokeColor=none;fillColor=#00BEF2;shape=mxgraph.azure.mobile_services;pointerEvents=1;" parent="1" vertex="1">
          <mxGeometry x="1081.12" y="-1070" width="170" height="260" as="geometry" />
        </mxCell>
        <mxCell id="IUvRx3EV4BnGwmyhByUk-6" style="edgeStyle=orthogonalEdgeStyle;rounded=0;orthogonalLoop=1;jettySize=auto;html=1;exitX=0;exitY=0.5;exitDx=0;exitDy=0;exitPerimeter=0;entryX=0.503;entryY=1.023;entryDx=0;entryDy=0;entryPerimeter=0;" edge="1" parent="1" source="9053hMfc9yj6UJDpu91s-9" target="9053hMfc9yj6UJDpu91s-10">
          <mxGeometry relative="1" as="geometry" />
        </mxCell>
        <mxCell id="IUvRx3EV4BnGwmyhByUk-8" value="&lt;font style=&quot;font-size: 36px;&quot;&gt;Send current IP&lt;/font&gt;" style="edgeLabel;html=1;align=center;verticalAlign=middle;resizable=0;points=[];" vertex="1" connectable="0" parent="IUvRx3EV4BnGwmyhByUk-6">
          <mxGeometry x="-0.1552" y="3" relative="1" as="geometry">
            <mxPoint as="offset" />
          </mxGeometry>
        </mxCell>
        <mxCell id="IUvRx3EV4BnGwmyhByUk-30" style="edgeStyle=orthogonalEdgeStyle;rounded=0;orthogonalLoop=1;jettySize=auto;html=1;entryX=1;entryY=0.5;entryDx=0;entryDy=0;entryPerimeter=0;" edge="1" parent="1" source="IUvRx3EV4BnGwmyhByUk-29" target="9053hMfc9yj6UJDpu91s-9">
          <mxGeometry relative="1" as="geometry" />
        </mxCell>
        <mxCell id="IUvRx3EV4BnGwmyhByUk-31" value="&lt;font style=&quot;font-size: 36px;&quot;&gt;Get letsencrypt certificate&lt;/font&gt;" style="edgeLabel;html=1;align=center;verticalAlign=middle;resizable=0;points=[];" vertex="1" connectable="0" parent="IUvRx3EV4BnGwmyhByUk-30">
          <mxGeometry x="0.444" y="-4" relative="1" as="geometry">
            <mxPoint x="217" y="95" as="offset" />
          </mxGeometry>
        </mxCell>
        <mxCell id="IUvRx3EV4BnGwmyhByUk-29" value="Cerbot" style="sketch=0;outlineConnect=0;fontColor=#232F3E;gradientColor=none;strokeColor=#232F3E;fillColor=#ffffff;dashed=0;verticalLabelPosition=bottom;verticalAlign=top;align=center;html=1;fontSize=12;fontStyle=0;aspect=fixed;shape=mxgraph.aws4.resourceIcon;resIcon=mxgraph.aws4.certificate_manager;" vertex="1" parent="1">
          <mxGeometry x="1440" y="790" width="60" height="60" as="geometry" />
        </mxCell>
      </root>
    </mxGraphModel>
  </diagram>
</mxfile>
